<?xml version="1.0" standalone="no"?>
<!DOCTYPE svg PUBLIC "-//W3C//DTD SVG 20010904//EN"
 "http://www.w3.org/TR/2001/REC-SVG-20010904/DTD/svg10.dtd">
<svg version="1.0" xmlns="http://www.w3.org/2000/svg"
 width="244.000000pt" height="249.000000pt" viewBox="0 0 244.000000 249.000000"
 preserveAspectRatio="xMidYMid meet">

<g transform="translate(0.000000,249.000000) scale(0.100000,-0.100000)"
fill="#000000" stroke="none">
<path d="M60 1240 l0 -1130 1170 0 1170 0 0 1130 0 1130 -515 0 c-451 0 -515
-2 -515 -15 0 -8 9 -15 20 -15 27 0 27 -40 0 -47 -11 -3 -20 -12 -20 -19 0
-12 75 -14 460 -14 l460 0 0 -1020 0 -1020 -365 0 c-358 0 -365 0 -365 -20 0
-13 -7 -20 -20 -20 -18 0 -20 7 -20 60 l0 60 -40 0 c-33 0 -40 3 -40 20 0 17
7 20 40 20 29 0 40 4 40 15 0 12 -13 15 -60 15 l-60 0 0 -95 0 -95 -35 0 -35
0 0 95 0 95 -60 0 -60 0 0 -95 0 -95 -35 0 c-28 0 -35 -4 -35 -20 0 -17 -7
-20 -45 -20 -38 0 -45 3 -45 20 0 17 7 20 40 20 l40 0 0 95 0 95 -55 0 -55 0
0 -55 0 -55 40 0 c33 0 40 -3 40 -20 0 -17 -7 -20 -40 -20 -33 0 -40 -3 -40
-20 0 -17 -7 -20 -40 -20 l-40 0 0 95 c0 88 -1 95 -20 95 -19 0 -20 -7 -20
-95 0 -88 -1 -95 -20 -95 -13 0 -20 7 -20 20 0 20 -7 20 -345 20 l-345 0 0
1020 0 1020 460 0 c385 0 460 2 460 14 0 7 -9 16 -20 19 -12 3 -20 14 -20 26
0 14 6 21 20 21 11 0 20 7 20 15 0 13 -64 15 -515 15 l-515 0 0 -1130z m1038
-923 c2 -12 -3 -17 -17 -17 -15 0 -21 6 -21 21 0 25 33 22 38 -4z m192 3 c0
-13 -7 -20 -20 -20 -13 0 -20 7 -20 20 0 13 7 20 20 20 13 0 20 -7 20 -20z m0
-80 c0 -13 -7 -20 -20 -20 -13 0 -20 7 -20 20 0 13 7 20 20 20 13 0 20 -7 20
-20z m190 0 c0 -13 -7 -20 -20 -20 -13 0 -20 7 -20 20 0 13 7 20 20 20 13 0
20 -7 20 -20z m-540 -80 c0 -13 -7 -20 -20 -20 -13 0 -20 7 -20 20 0 13 7 20
20 20 13 0 20 -7 20 -20z m390 0 c0 -18 -7 -20 -60 -20 -53 0 -60 2 -60 20 0
18 7 20 60 20 53 0 60 -2 60 -20z m190 0 c0 -18 -7 -20 -60 -20 -53 0 -60 2
-60 20 0 18 7 20 60 20 53 0 60 -2 60 -20z"/>
<path d="M1140 2355 c0 -10 11 -15 35 -15 24 0 35 5 35 15 0 10 -11 15 -35 15
-24 0 -35 -5 -35 -15z"/>
<path d="M1250 2355 c0 -10 11 -15 35 -15 24 0 35 5 35 15 0 10 -11 15 -35 15
-24 0 -35 -5 -35 -15z"/>
<path d="M1100 2315 c0 -8 7 -15 15 -15 8 0 15 7 15 15 0 8 -7 15 -15 15 -8 0
-15 -7 -15 -15z"/>
<path d="M1210 2295 c0 -28 4 -35 20 -35 16 0 20 7 20 35 0 28 -4 35 -20 35
-16 0 -20 -7 -20 -35z"/>
<path d="M1330 2315 c0 -8 7 -15 15 -15 8 0 15 7 15 15 0 8 -7 15 -15 15 -8 0
-15 -7 -15 -15z"/>
<path d="M1140 2275 c0 -8 7 -15 15 -15 8 0 15 7 15 15 0 8 -7 15 -15 15 -8 0
-15 -7 -15 -15z"/>
<path d="M1290 2275 c0 -8 7 -15 15 -15 8 0 15 7 15 15 0 8 -7 15 -15 15 -8 0
-15 -7 -15 -15z"/>
<path d="M290 1240 l0 -900 285 0 c278 0 285 0 285 20 0 13 7 20 20 20 13 0
20 7 20 20 0 13 7 20 20 20 13 0 20 -7 20 -20 0 -17 7 -20 40 -20 33 0 40 3
40 20 0 18 7 20 56 20 47 0 57 -3 61 -20 8 -29 73 -29 73 0 0 18 7 20 60 20
53 0 60 -2 60 -20 0 -16 7 -20 35 -20 28 0 35 4 35 20 0 18 7 20 60 20 53 0
60 -2 60 -20 0 -13 7 -20 20 -20 13 0 20 -7 20 -20 0 -20 7 -20 305 -20 l305
0 0 900 0 900 -400 0 c-334 0 -400 -2 -400 -14 0 -7 9 -16 20 -19 11 -3 20
-13 20 -22 0 -9 -9 -19 -20 -22 -27 -7 -25 -33 3 -34 12 -1 162 -2 334 -3 171
0 315 -4 319 -9 4 -4 8 -152 9 -328 l2 -321 -30 6 c-16 3 -33 6 -38 6 -5 0 -9
7 -9 15 0 8 -9 15 -20 15 -11 0 -20 -7 -20 -15 0 -8 -7 -15 -15 -15 -8 0 -15
7 -15 15 0 9 -9 15 -25 15 -15 0 -25 -6 -25 -14 0 -8 -11 -17 -24 -20 -34 -8
-86 4 -86 20 0 8 -9 14 -20 14 -11 0 -20 -7 -20 -15 0 -8 -7 -15 -15 -15 -8 0
-15 7 -15 15 0 9 -9 15 -25 15 -15 0 -25 -6 -25 -14 0 -8 -11 -17 -24 -20 -34
-8 -86 4 -86 20 0 8 -9 14 -20 14 -11 0 -20 -7 -20 -15 0 -8 -7 -15 -15 -15
-8 0 -15 7 -15 15 0 9 -9 15 -25 15 -15 0 -25 -6 -25 -14 0 -8 -11 -17 -24
-20 -34 -8 -86 4 -86 20 0 8 -9 14 -20 14 -11 0 -20 -7 -20 -15 0 -8 -9 -15
-20 -15 -13 0 -20 -7 -20 -20 0 -13 -7 -20 -20 -20 -13 0 -20 -7 -20 -20 0
-13 -7 -20 -20 -20 -17 0 -20 -7 -20 -40 l0 -40 465 0 c458 0 465 0 465 -20 0
-19 -7 -20 -95 -20 l-95 0 0 -35 0 -35 55 0 55 0 0 -60 c0 -53 -2 -60 -20 -60
-13 0 -20 -7 -20 -20 0 -13 7 -20 20 -20 19 0 20 -7 20 -155 0 -148 -1 -155
-20 -155 -13 0 -20 -7 -20 -20 0 -13 -7 -20 -20 -20 -16 0 -20 -7 -20 -35 0
-28 4 -35 20 -35 11 0 20 7 20 15 0 11 11 15 36 15 27 0 37 5 41 20 3 11 14
20 24 20 17 0 19 -8 19 -75 l0 -75 -830 0 -830 0 0 385 0 385 115 0 c108 0
115 1 115 20 0 13 -7 20 -20 20 -17 0 -20 7 -20 40 0 33 3 40 20 40 13 0 20 7
20 20 0 11 -7 20 -15 20 -8 0 -15 7 -15 15 0 8 -9 15 -20 15 -13 0 -20 7 -20
20 0 13 7 20 20 20 19 0 20 7 20 95 0 95 0 95 -25 95 -16 0 -25 -6 -25 -15 0
-8 -7 -15 -15 -15 -8 0 -15 7 -15 15 0 15 -13 18 -80 19 l-35 1 1 182 c0 101
4 186 8 190 4 5 148 9 319 9 390 2 357 0 357 24 0 13 7 20 20 20 11 0 20 7 20
15 0 8 -9 15 -20 15 -13 0 -20 7 -20 20 0 20 -7 20 -400 20 l-400 0 0 -900z
m150 350 c0 -13 7 -20 20 -20 13 0 20 7 20 20 0 13 7 20 20 20 13 0 20 -7 20
-20 0 -13 7 -20 20 -20 18 0 20 -7 20 -60 l0 -60 -40 0 c-33 0 -40 -3 -40 -20
0 -17 -7 -20 -40 -20 -33 0 -40 3 -40 20 0 17 7 20 40 20 33 0 40 3 40 20 0
17 -7 20 -40 20 -33 0 -40 3 -40 20 0 13 7 20 20 20 13 0 20 7 20 20 0 13 -7
20 -20 20 -13 0 -20 7 -20 20 0 13 7 20 20 20 13 0 20 -7 20 -20z m110 -195
c0 -8 -7 -15 -15 -15 -8 0 -15 7 -15 15 0 8 7 15 15 15 8 0 15 -7 15 -15z"/>
<path d="M480 1530 c0 -33 3 -40 20 -40 17 0 20 7 20 40 0 33 -3 40 -20 40
-17 0 -20 -7 -20 -40z"/>
<path d="M1140 2125 c0 -8 7 -15 15 -15 8 0 15 7 15 15 0 8 -7 15 -15 15 -8 0
-15 -7 -15 -15z"/>
<path d="M1210 2105 c0 -28 4 -35 20 -35 16 0 20 7 20 35 0 28 -4 35 -20 35
-16 0 -20 -7 -20 -35z"/>
<path d="M1290 2125 c0 -8 7 -15 15 -15 8 0 15 7 15 15 0 8 -7 15 -15 15 -8 0
-15 -7 -15 -15z"/>
<path d="M1330 2085 c0 -8 7 -15 15 -15 8 0 15 7 15 15 0 8 -7 15 -15 15 -8 0
-15 -7 -15 -15z"/>
<path d="M1140 2045 c0 -8 6 -15 13 -15 6 0 22 -3 35 -6 18 -5 22 -2 22 15 0
17 -6 21 -35 21 -24 0 -35 -5 -35 -15z"/>
<path d="M1250 2039 c0 -17 4 -20 23 -15 12 3 28 6 35 6 6 0 12 7 12 15 0 10
-11 15 -35 15 -29 0 -35 -4 -35 -21z"/>
<path d="M440 1950 c0 -33 3 -40 20 -40 17 0 20 7 20 40 0 33 -3 40 -20 40
-17 0 -20 -7 -20 -40z"/>
<path d="M512 1953 c2 -31 7 -39 26 -41 20 -3 22 1 22 37 0 37 -2 41 -26 41
-23 0 -25 -3 -22 -37z"/>
<path d="M670 1950 c0 -33 3 -40 20 -40 17 0 20 7 20 40 0 33 -3 40 -20 40
-17 0 -20 -7 -20 -40z"/>
<path d="M750 1950 c0 -33 3 -40 20 -40 17 0 20 7 20 40 0 33 -3 40 -20 40
-17 0 -20 -7 -20 -40z"/>
<path d="M900 1949 c0 -36 2 -40 23 -37 18 2 23 10 25 41 3 34 1 37 -22 37
-24 0 -26 -4 -26 -41z"/>
<path d="M980 1950 c0 -33 3 -40 20 -40 17 0 20 7 20 40 0 33 -3 40 -20 40
-17 0 -20 -7 -20 -40z"/>
<path d="M1130 1949 c0 -36 2 -40 23 -37 18 2 23 10 25 41 3 34 1 37 -22 37
-24 0 -26 -4 -26 -41z"/>
<path d="M1210 1950 c0 -33 3 -40 20 -40 17 0 20 7 20 40 0 33 -3 40 -20 40
-17 0 -20 -7 -20 -40z"/>
<path d="M1360 1949 c0 -36 2 -40 23 -37 18 2 23 10 25 41 3 34 1 37 -22 37
-24 0 -26 -4 -26 -41z"/>
<path d="M1440 1950 c0 -33 3 -40 20 -40 17 0 20 7 20 40 0 33 -3 40 -20 40
-17 0 -20 -7 -20 -40z"/>
<path d="M1590 1950 c0 -36 3 -40 25 -40 23 0 25 4 25 40 0 36 -2 40 -25 40
-22 0 -25 -4 -25 -40z"/>
<path d="M1670 1950 c0 -33 3 -40 20 -40 17 0 20 7 20 40 0 33 -3 40 -20 40
-17 0 -20 -7 -20 -40z"/>
<path d="M1820 1950 c0 -36 3 -40 25 -40 23 0 25 4 25 40 0 36 -2 40 -25 40
-22 0 -25 -4 -25 -40z"/>
<path d="M1900 1949 c0 -36 2 -40 23 -37 18 2 23 10 25 41 3 34 1 37 -22 37
-24 0 -26 -4 -26 -41z"/>
<path d="M480 1830 c0 -33 3 -40 20 -40 17 0 20 7 20 40 0 33 -3 40 -20 40
-17 0 -20 -7 -20 -40z"/>
<path d="M552 1833 c2 -30 7 -38 23 -38 16 0 21 8 23 38 3 34 1 37 -23 37 -24
0 -26 -3 -23 -37z"/>
<path d="M710 1830 c0 -33 3 -40 20 -40 17 0 20 7 20 40 0 33 -3 40 -20 40
-17 0 -20 -7 -20 -40z"/>
<path d="M782 1833 c2 -30 7 -38 23 -38 16 0 21 8 23 38 3 34 1 37 -23 37 -24
0 -26 -3 -23 -37z"/>
<path d="M940 1830 c0 -33 3 -40 20 -40 17 0 20 7 20 40 0 33 -3 40 -20 40
-17 0 -20 -7 -20 -40z"/>
<path d="M1012 1833 c2 -30 7 -38 23 -38 16 0 21 8 23 38 3 34 1 37 -23 37
-24 0 -26 -3 -23 -37z"/>
<path d="M1172 1833 c2 -27 8 -39 21 -41 14 -3 17 4 17 37 0 35 -3 41 -21 41
-17 0 -20 -5 -17 -37z"/>
<path d="M1250 1829 c0 -33 3 -40 18 -37 12 2 18 14 20 41 3 32 0 37 -17 37
-18 0 -21 -6 -21 -41z"/>
<path d="M1402 1833 c2 -30 7 -38 23 -38 16 0 21 8 23 38 3 34 1 37 -23 37
-24 0 -26 -3 -23 -37z"/>
<path d="M1480 1829 c0 -33 3 -40 18 -37 12 2 18 14 20 41 3 32 0 37 -17 37
-18 0 -21 -6 -21 -41z"/>
<path d="M1632 1833 c2 -30 7 -38 23 -38 16 0 21 8 23 38 3 34 1 37 -23 37
-24 0 -26 -3 -23 -37z"/>
<path d="M1710 1830 c0 -33 3 -40 20 -40 17 0 20 7 20 40 0 33 -3 40 -20 40
-17 0 -20 -7 -20 -40z"/>
<path d="M1862 1833 c2 -30 7 -38 23 -38 16 0 21 8 23 38 3 34 1 37 -23 37
-24 0 -26 -3 -23 -37z"/>
<path d="M1942 1833 c2 -27 8 -39 21 -41 14 -3 17 4 17 37 0 35 -3 41 -21 41
-17 0 -20 -5 -17 -37z"/>
<path d="M440 1720 c0 -33 3 -40 20 -40 17 0 20 7 20 40 0 33 -3 40 -20 40
-17 0 -20 -7 -20 -40z"/>
<path d="M512 1723 c2 -31 7 -39 26 -41 20 -3 22 1 22 37 0 37 -2 41 -26 41
-23 0 -25 -3 -22 -37z"/>
<path d="M670 1720 c0 -33 3 -40 20 -40 17 0 20 7 20 40 0 33 -3 40 -20 40
-17 0 -20 -7 -20 -40z"/>
<path d="M750 1700 c0 -53 -2 -60 -20 -60 -18 0 -20 -7 -20 -55 0 -48 -2 -55
-20 -55 -17 0 -20 -7 -20 -40 0 -33 3 -40 20 -40 13 0 20 -7 20 -20 0 -13 7
-20 20 -20 11 0 20 -6 20 -14 0 -7 10 -16 23 -20 41 -11 57 -7 57 14 0 13 7
20 20 20 13 0 20 7 20 20 0 16 7 20 35 20 28 0 35 4 35 20 0 17 7 20 40 20 33
0 40 3 40 20 0 13 7 20 20 20 13 0 20 -7 20 -20 0 -11 7 -20 15 -20 10 0 15
-15 17 -57 2 -46 7 -59 21 -61 15 -3 17 5 17 57 0 54 2 61 20 61 13 0 20 -7
20 -20 0 -17 7 -20 40 -20 33 0 40 3 40 20 0 13 7 20 20 20 18 0 20 7 20 75 0
68 -2 75 -20 75 -18 0 -20 7 -20 60 0 53 -2 60 -20 60 -13 0 -20 -7 -20 -20 0
-11 -7 -20 -15 -20 -8 0 -15 9 -15 20 0 19 -7 20 -215 20 l-215 0 0 -60z"/>
<path d="M1360 1720 c0 -36 3 -40 25 -40 23 0 25 4 25 40 0 36 -2 40 -25 40
-22 0 -25 -4 -25 -40z"/>
<path d="M1440 1720 c0 -33 3 -40 20 -40 17 0 20 7 20 40 0 33 -3 40 -20 40
-17 0 -20 -7 -20 -40z"/>
<path d="M1590 1720 c0 -36 3 -40 25 -40 23 0 25 4 25 40 0 36 -2 40 -25 40
-22 0 -25 -4 -25 -40z"/>
<path d="M1670 1720 c0 -33 3 -40 20 -40 17 0 20 7 20 40 0 33 -3 40 -20 40
-17 0 -20 -7 -20 -40z"/>
<path d="M1820 1720 c0 -36 3 -40 25 -40 23 0 25 4 25 40 0 36 -2 40 -25 40
-22 0 -25 -4 -25 -40z"/>
<path d="M1900 1719 c0 -36 2 -40 23 -37 18 2 23 10 25 41 3 34 1 37 -22 37
-24 0 -26 -4 -26 -41z"/>
<path d="M1402 1603 c2 -30 7 -38 23 -38 16 0 21 8 23 38 3 34 1 37 -23 37
-24 0 -26 -3 -23 -37z"/>
<path d="M1480 1599 c0 -33 3 -40 18 -37 12 2 18 14 20 41 3 32 0 37 -17 37
-18 0 -21 -6 -21 -41z"/>
<path d="M1632 1603 c2 -30 7 -38 23 -38 16 0 21 8 23 38 3 34 1 37 -23 37
-24 0 -26 -3 -23 -37z"/>
<path d="M1710 1600 c0 -33 3 -40 20 -40 17 0 20 7 20 40 0 33 -3 40 -20 40
-17 0 -20 -7 -20 -40z"/>
<path d="M1862 1603 c2 -30 7 -38 23 -38 16 0 21 8 23 38 3 34 1 37 -23 37
-24 0 -26 -3 -23 -37z"/>
<path d="M1942 1603 c2 -27 8 -39 21 -41 14 -3 17 4 17 37 0 35 -3 41 -21 41
-17 0 -20 -5 -17 -37z"/>
<path d="M1360 1490 c0 -36 3 -40 25 -40 23 0 25 4 25 40 0 36 -2 40 -25 40
-22 0 -25 -4 -25 -40z"/>
<path d="M1440 1490 c0 -33 3 -40 20 -40 17 0 20 7 20 40 0 33 -3 40 -20 40
-17 0 -20 -7 -20 -40z"/>
<path d="M1590 1490 c0 -36 3 -40 25 -40 23 0 25 4 25 40 0 36 -2 40 -25 40
-22 0 -25 -4 -25 -40z"/>
<path d="M1670 1490 c0 -33 3 -40 20 -40 17 0 20 7 20 40 0 33 -3 40 -20 40
-17 0 -20 -7 -20 -40z"/>
<path d="M1820 1490 c0 -36 3 -40 25 -40 23 0 25 4 25 40 0 36 -2 40 -25 40
-22 0 -25 -4 -25 -40z"/>
<path d="M1900 1489 c0 -36 2 -40 23 -37 18 2 23 10 25 41 3 34 1 37 -22 37
-24 0 -26 -4 -26 -41z"/>
<path d="M980 1409 l0 -40 38 3 c35 3 37 5 40 41 l3 37 -40 0 -41 0 0 -41z"/>
<path d="M940 1320 c0 -18 7 -20 80 -20 73 0 80 2 80 20 0 18 -7 20 -80 20
-73 0 -80 -2 -80 -20z"/>
<path d="M1440 890 c0 -283 0 -290 20 -290 13 0 20 -7 20 -20 0 -16 7 -20 35
-20 24 0 35 -5 35 -15 0 -8 9 -15 20 -15 11 0 20 6 20 13 0 6 3 22 6 35 5 18
2 22 -15 22 -14 0 -21 6 -21 20 0 13 -7 20 -20 20 -19 0 -20 7 -20 235 l0 235
55 0 55 0 0 35 0 35 -95 0 -95 0 0 -290z"/>
<path d="M900 1088 c0 -11 -7 -18 -20 -18 -13 0 -20 -7 -20 -20 0 -18 -7 -20
-55 -20 -48 0 -55 -2 -55 -20 0 -13 -7 -20 -20 -20 -13 0 -20 -7 -20 -20 0
-19 7 -20 135 -20 128 0 135 1 135 20 0 13 7 20 20 20 13 0 20 7 20 20 0 13 7
20 20 20 17 0 20 7 20 40 l0 39 -80 -2 c-69 -1 -80 -4 -80 -19z"/>
<path d="M1560 1050 c0 -18 7 -20 55 -20 48 0 55 2 55 20 0 18 -7 20 -55 20
-48 0 -55 -2 -55 -20z"/>
<path d="M1710 1050 c0 -17 7 -20 40 -20 33 0 40 3 40 20 0 17 -7 20 -40 20
-33 0 -40 -3 -40 -20z"/>
<path d="M1830 1050 c0 -11 7 -20 15 -20 8 0 15 9 15 20 0 11 -7 20 -15 20 -8
0 -15 -9 -15 -20z"/>
<path d="M1900 1050 c0 -13 7 -20 20 -20 13 0 20 7 20 20 0 13 -7 20 -20 20
-13 0 -20 -7 -20 -20z"/>
<path d="M1560 970 c0 -18 7 -20 55 -20 48 0 55 2 55 20 0 18 -7 20 -55 20
-48 0 -55 -2 -55 -20z"/>
<path d="M1750 970 c0 -13 7 -20 20 -20 13 0 20 7 20 20 0 13 -7 20 -20 20
-13 0 -20 -7 -20 -20z"/>
<path d="M1830 970 c0 -16 7 -20 35 -20 28 0 35 4 35 20 0 16 -7 20 -35 20
-28 0 -35 -4 -35 -20z"/>
<path d="M710 840 l0 -40 135 0 135 0 0 40 0 40 -135 0 -135 0 0 -40z"/>
<path d="M1600 855 c0 -13 23 -15 150 -15 127 0 150 2 150 15 0 13 -23 15
-150 15 -127 0 -150 -2 -150 -15z"/>
<path d="M1600 780 c0 -19 7 -20 150 -20 143 0 150 1 150 20 0 19 -7 20 -150
20 -143 0 -150 -1 -150 -20z"/>
<path d="M1670 680 c0 -33 -3 -40 -20 -40 -11 0 -20 -7 -20 -15 0 -8 9 -15 20
-15 11 0 20 7 20 15 0 8 9 15 20 15 16 0 20 -7 20 -35 0 -28 4 -35 20 -35 11
0 20 7 20 15 0 8 9 15 20 15 13 0 20 7 20 20 0 13 7 20 20 20 11 0 20 -7 20
-15 0 -8 9 -15 20 -15 11 0 20 7 20 15 0 8 -9 15 -20 15 -17 0 -20 7 -20 40
l0 40 -80 0 -80 0 0 -40z m118 -17 c-5 -26 -38 -29 -38 -4 0 15 6 21 21 21 14
0 19 -5 17 -17z"/>
</g>
</svg>
